<?xml version="1.0" encoding="UTF-8" standalone="no"?>
<!-- Created with Inkscape (http://www.inkscape.org/) -->

<svg
   xmlns:dc="http://purl.org/dc/elements/1.1/"
   xmlns:cc="http://creativecommons.org/ns#"
   xmlns:rdf="http://www.w3.org/1999/02/22-rdf-syntax-ns#"
   xmlns:svg="http://www.w3.org/2000/svg"
   xmlns="http://www.w3.org/2000/svg"
   xmlns:sodipodi="http://sodipodi.sourceforge.net/DTD/sodipodi-0.dtd"
   xmlns:inkscape="http://www.inkscape.org/namespaces/inkscape"
   width="14.798231"
   height="5.351233"
   viewBox="0 0 14.798231 5.351233"
   version="1.1"
   id="SVGRoot"
   inkscape:version="0.92.5 (2060ec1f9f, 2020-04-08)"
   sodipodi:docname="logo-ryoko-simplesvg.svg">
  <defs
     id="defs10" />
  <sodipodi:namedview
     id="base"
     pagecolor="#ffffff"
     bordercolor="#666666"
     borderopacity="1.0"
     inkscape:pageopacity="0.0"
     inkscape:pageshadow="2"
     inkscape:zoom="32"
     inkscape:cx="4.7956607"
     inkscape:cy="3.6644254"
     inkscape:document-units="px"
     inkscape:current-layer="layer1"
     showgrid="false"
     inkscape:window-width="1920"
     inkscape:window-height="1079"
     inkscape:window-x="0"
     inkscape:window-y="1"
     inkscape:window-maximized="1"
     inkscape:grid-bbox="true"
     inkscape:snap-to-guides="false"
     inkscape:snap-grids="false"
     fit-margin-top="0"
     fit-margin-left="0"
     fit-margin-right="0"
     fit-margin-bottom="0" />
  <metadata
     id="metadata13">
    <rdf:RDF>
      <cc:Work
         rdf:about="">
        <dc:format>image/svg+xml</dc:format>
        <dc:type
           rdf:resource="http://purl.org/dc/dcmitype/StillImage" />
        <dc:title></dc:title>
      </cc:Work>
    </rdf:RDF>
  </metadata>
  <g
     inkscape:label="Capa 1"
     inkscape:groupmode="layer"
     id="layer1"
     transform="translate(-0.60088463,-5.3899758)"
     style="display:inline">
    <g
       aria-label="RYOKO"
       style="font-style:normal;font-variant:normal;font-weight:normal;font-stretch:normal;font-size:40px;line-height:1.25;font-family:Ryoko;-inkscape-font-specification:Ryoko;letter-spacing:0px;word-spacing:0px;fill:#000000;fill-opacity:1;stroke:none"
       id="text25"
       transform="matrix(0.09748084,0,0,0.09748084,0.31831568,8.8281473)">
      <path
         style="stroke-width:0.09748084"
         d="m 2.890625,1.1311846 0.058594,0.056641 c 0.1066195,0 0.1992337,0.037124 0.2753906,0.1132812 0.076157,0.076157 0.1132812,0.1694548 0.1132812,0.2773438 v 0.390625 c -0.066291,0.225347 -0.043241,0.2059876 -0.2948069,0.4051971 -0.1199701,0.095002 -0.5200955,0.096059 -0.5699323,0.097228 -0.1192592,0.073677 -0.3903804,-0.026188 0.085442,0.087093 h 0.7792968 c 0.2157779,-10e-8 0.2788866,-0.032008 0.5527344,-0.2285157 0,0 0.1834895,-0.1528764 0.2285156,-0.3996728 C 4.1603589,1.7044805 4.0429388,1.5686546 3.890625,1.4163408 3.7354981,1.2612139 3.5019974,1.194177 3.3183594,1.1643877 3.2060224,1.1461652 3.0006932,1.1393175 2.890625,1.1311846 Z m 0.4472656,1.4274092 c 0.2157779,-1e-7 0.4004206,0.076886 0.5527344,0.2304687 0.1523138,0.1523138 0.2285156,0.3362726 0.2285156,0.5507813 0,0.2157778 0.076202,0.4004205 0.2285156,0.5527343 0.1523139,0.1523138 0.3350034,0.2285156 0.5507813,0.2285157 h 0.7792969 c -0.2145087,0 -0.3984675,-0.076202 -0.5507813,-0.2285157 C 4.9746393,3.7402643 4.8984375,3.5556216 4.8984375,3.3398438 4.8984375,3.1253351 4.8215518,2.9413763 4.6679688,2.7890625 4.5169242,2.6354794 4.3212189,2.595578 4.1074218,2.5664063 3.2914935,2.4550764 3.5279304,2.4917358 3.3378906,2.5585938 Z m -0.7792968,0 V 1.5784502 c 0,-0.107889 0.039077,-0.2011868 0.1152343,-0.2773438 C 2.749985,1.2249496 2.8413298,1.1878252 2.9492188,1.1878252 L 2.890625,1.1311846 2.5546875,1.168294 C 2.2863094,1.220384 2.1601263,1.264027 2.0078125,1.4163408 1.8554987,1.5686546 1.7792969,1.7532973 1.7792969,1.9690752 v 1.3707686 c 0,0.2157778 -0.076202,0.4004205 -0.2285157,0.5527343 C 1.3984675,4.0448919 1.2145086,4.1210937 1,4.1210938 h 0.7792969 c 0.2157778,0 0.3984674,-0.076202 0.5507812,-0.2285157 C 2.4823919,3.7402643 2.5585938,3.5556216 2.5585938,3.3398438 Z"
         transform="matrix(10.258426,0,0,10.258426,-7.3597133,-46.874402)"
         id="path27"
         inkscape:connector-curvature="0"
         sodipodi:nodetypes="cccscsccscssccccssscsscsccsccccsssscsssc" />
      <path
         d="m 59.046875,-4.359375 c -2.213542,0 -4.101563,-0.78125 -5.664063,-2.34375 -1.5625,-1.5625 -2.34375,-3.450521 -2.34375,-5.664063 0,-2.200521 -0.78125,-4.082031 -2.34375,-5.644531 -1.5625,-1.575521 -3.44401,-2.363281 -5.644531,-2.363281 h 7.988281 c 2.213542,0 4.101563,0.78776 5.664063,2.363281 1.5625,1.5625 2.34375,3.44401 2.34375,5.644531 0,2.213542 0.78125,4.101563 2.34375,5.664063 0.698062,0.6980619 6.138786,0.7253573 6.138786,0.7253573 2.219969,1.0071361 -0.986771,1.6463091 0.146897,1.6183927 z m 0,23.984375 c 2.200521,0 4.082031,-0.78125 5.644531,-2.34375 1.5625,-1.5625 2.34375,-3.44401 2.34375,-5.644531 v -24.003907 c 0,-2.213541 0.78125,-4.095052 2.34375,-5.644531 1.5625,-1.575521 3.450521,-2.363281 5.664063,-2.363281 h 8.007812 c -2.213541,0 -4.101562,0.78776 -5.664062,2.363281 -1.5625,1.5625 -2.34375,3.44401 -2.34375,5.644531 v 24.003907 c 0,2.213541 -0.78125,4.095052 -2.34375,5.644531 -1.5625,1.5625 -3.450521,2.34375 -5.664063,2.34375 z"
         id="path29"
         inkscape:connector-curvature="0"
         sodipodi:nodetypes="sssccscssccscssscsccsscsc" />
      <path
         d="m 91.039062,-4.6182836 c -2.200521,0 -4.082031,-0.78125 -5.644531,-2.34375 -1.5625,-1.5625 -2.34375,-3.4440104 -2.34375,-5.6445314 0,-2.213541 0.78125,-4.101562 2.34375,-5.664062 1.5625,-1.5625 3.44401,-2.34375 5.644531,-2.34375 2.213542,0 4.101563,0.78125 5.664063,2.34375 1.5625,1.5625 2.34375,3.450521 2.34375,5.664062 0,2.200521 -0.78125,4.0820314 -2.34375,5.6445314 -1.5625,1.5625 -3.450521,2.34375 -5.664063,2.34375 z"
         id="path31"
         inkscape:connector-curvature="0"
         sodipodi:nodetypes="sssssssss" />
      <path
         d="m 139.04687,19.625 c -2.21354,0 -4.10156,-0.78125 -5.66406,-2.34375 -1.5625,-1.5625 -2.34375,-3.44401 -2.34375,-5.644531 V 3.6289063 c 0,-2.2005209 -0.78125,-4.0820313 -2.34375,-5.6445313 -1.5625,-1.5625 -3.45052,-2.34375 -5.66406,-2.34375 1.63183,-0.2003599 1.47021,-0.6010797 2.68807,-0.8014395 1.77325,0.2591024 3.54649,0.4474177 5.31974,0.8014395 1.55372,0.3101952 4.09505,0.78125 5.64453,2.34375 1.57552,1.5625 2.36328,3.4440104 2.36328,5.6445313 v 8.0078127 c 0,2.200521 0.78125,4.082031 2.34375,5.644531 1.5625,1.5625 3.44401,2.34375 5.64454,2.34375 z m -24.0039,0 c -2.21354,0 -4.10156,-0.78125 -5.66406,-2.34375 -1.5625,-1.5625 -2.34375,-3.44401 -2.34375,-5.644531 v -24.003907 c 0,-2.200521 -0.78125,-4.082031 -2.34375,-5.644531 -1.5625,-1.575521 -3.44401,-2.363281 -5.644535,-2.363281 h 7.988285 c 2.21354,0 4.10156,0.78776 5.66406,2.363281 1.5625,1.5625 2.34375,3.44401 2.34375,5.644531 v 24.003907 c 0,2.200521 0.78125,4.082031 2.34375,5.644531 1.5625,1.5625 3.44401,2.34375 5.64453,2.34375 z m -0.64115,-25.3067502 c 4.00376,0.1602879 4.72318,0.5411252 6.28568,-1.0213745 1.5625,-1.5625 2.34375,-3.4505213 2.34375,-5.6640633 0,-2.213541 0.78125,-4.095052 2.34375,-5.644531 1.5625,-1.575521 3.45052,-2.363281 5.66406,-2.363281 h 8.00781 c -2.21354,0 -4.10156,0.78776 -5.66406,2.363281 -1.5625,1.5625 -2.34375,3.44401 -2.34375,5.644531 0,2.213542 -0.78125,4.1015633 -2.34375,5.6640633 -1.5625,1.5625 -3.45052,2.34375 -5.66406,2.34375 l -4.36515,0.063288 -3.9265,0.056928 z"
         id="path33"
         inkscape:connector-curvature="0"
         sodipodi:nodetypes="sssssccscssscsssssccscssscscsscsccsssccc" />
      <path
         d="m 146.69746,-8.6026586 q 1.66015,0 2.83203,-1.191406 1.17187,-1.1523444 1.17187,-2.8125004 0,-1.660156 -1.17187,-2.832031 -1.17188,-1.171875 -2.83203,-1.171875 -1.66016,0 -2.8125,1.171875 -1.19141,1.171875 -1.19141,2.832031 0,1.660156 1.19141,2.8125004 1.15234,1.191406 2.8125,1.191406 z m 0,3.984375 q -3.30078,0 -5.64453,-2.34375 -2.34375,-2.34375 -2.34375,-5.6445314 0,-3.320312 2.34375,-5.664062 2.34375,-2.34375 5.64453,-2.34375 3.32031,0 5.66406,2.34375 2.34375,2.34375 2.34375,5.664062 0,3.3007814 -2.34375,5.6445314 -2.34375,2.34375 -5.66406,2.34375 z"
         id="path35"
         inkscape:connector-curvature="0" />
      <path
         style="fill:#000000;stroke:#000000;stroke-width:0.00078125;stroke-linecap:round;stroke-miterlimit:4;stroke-dasharray:none;stroke-opacity:1"
         d="M 13.920116,8.2539186 C 13.731321,8.2342029 13.54793,8.127562 13.428082,7.9678039 13.36081,7.8781301 13.323511,7.7958651 13.300374,7.6861364 c -0.01844,-0.08748 -0.01744,-0.2107577 0.0025,-0.3063157 0.04908,-0.2352436 0.239861,-0.4471359 0.47275,-0.5250542 0.148676,-0.049743 0.338677,-0.046651 0.48376,0.00787 0.163366,0.061395 0.312839,0.1969583 0.392653,0.356114 0.05391,0.1074941 0.07554,0.2129644 0.07139,0.3480559 -0.0025,0.080269 -0.01179,0.1354743 -0.03432,0.203311 -0.05797,0.174505 -0.194557,0.3293777 -0.36685,0.4159692 -0.116399,0.0585 -0.259816,0.082691 -0.402132,0.067829 z m 0.174499,-0.3625258 c 0.116013,-0.028261 0.220876,-0.1270021 0.256597,-0.2416168 0.04625,-0.1483813 -0.004,-0.3059982 -0.127643,-0.4005084 -0.0934,-0.071384 -0.223323,-0.091956 -0.337803,-0.053486 -0.0928,0.031183 -0.183712,0.118871 -0.219901,0.2120925 -0.02431,0.062629 -0.03,0.1570742 -0.01334,0.221622 0.0088,0.034041 0.03287,0.085168 0.054,0.1146231 0.01985,0.027674 0.07433,0.081558 0.100102,0.099002 0.04072,0.027564 0.09307,0.048034 0.142578,0.055755 0.03452,0.00538 0.108158,0.00159 0.145414,-0.00748 z"
         id="path865"
         inkscape:connector-curvature="0"
         transform="matrix(11.082079,0,0,11.082079,-8.5066397,-96.158296)" />
      <path
         style="fill:#000000;stroke:#000000;stroke-width:0.00078125;stroke-linecap:round;stroke-miterlimit:4;stroke-dasharray:none;stroke-opacity:1"
         d="M 13.939436,8.2558145 C 13.843126,8.2463945 13.767469,8.2252935 13.688328,8.1857815 13.504368,8.0939365 13.35903,7.9186298 13.31075,7.730347 13.29139,7.654844 13.28904,7.633855 13.28916,7.5376992 c 1.28e-4,-0.1007672 0.0046,-0.1350425 0.02772,-0.2128906 0.01681,-0.056572 0.06258,-0.1493785 0.09811,-0.1989331 0.03054,-0.042589 0.09432,-0.1105819 0.137273,-0.1463381 0.13981,-0.1163777 0.314531,-0.1712649 0.504518,-0.1584902 0.153574,0.010326 0.279979,0.059561 0.398658,0.1552771 0.04174,0.033661 0.110072,0.1059943 0.141263,0.1495258 0.03555,0.049613 0.08131,0.1424103 0.09811,0.1989585 0.02313,0.077848 0.02759,0.1121234 0.02772,0.2128906 1.21e-4,0.096155 -0.0022,0.1171452 -0.02159,0.1926478 -0.06358,0.2479302 -0.289414,0.4617371 -0.540795,0.5119837 -0.07035,0.014063 -0.159258,0.019494 -0.220703,0.013484 z"
         id="path867"
         inkscape:connector-curvature="0"
         transform="matrix(11.082079,0,0,11.082079,-8.5066397,-96.158296)"
         sodipodi:nodetypes="cccccccccccccccc" />
    </g>
  </g>
</svg>
